<?xml version="1.0" encoding="UTF-8"?>
<svg xmlns="http://www.w3.org/2000/svg" version="1.1" viewBox="0 0 210 120">
  <defs>
    <style>
      .cls-1 {
        font-family: DecimaMonoCyr-Bold, 'Decima Mono Cyr';
        font-size: 11.3px;
        font-weight: 700;
      }

      .cls-1, .cls-2 {
        isolation: isolate;
      }

      .cls-1, .cls-3 {
        fill: #b5391a;
      }

      .cls-4 {
        fill: #afafaf;
      }
    </style>
  </defs>
  <!-- Generator: Adobe Illustrator 28.7.0, SVG Export Plug-In . SVG Version: 1.2.0 Build 136)  -->
  <g>
    <g id="Livello_1">
      <g id="Livello_1-2" data-name="Livello_1">
        <rect class="cls-4" width="210" height="120"/>
        <g id="Livello_2">
          <g>
            <rect class="cls-3" x="34.9" y="70.6" width="140.1" height="2.8"/>
            <rect class="cls-3" x="34.8" y="91.1" width="140.2" height="2.8"/>
            <g class="cls-2">
              <g class="cls-2">
                <text class="cls-1" transform="translate(34.2 85.2) scale(1.25 1)"><tspan x="0" y="0">Trattoria con Aperitivo</tspan></text>
              </g>
            </g>
          </g>
          <g>
            <path class="cls-3" d="M28.8,26.8l1.6.9c.4.2.6.7.4,1.2-1,2.6-1.5,5.2-1.6,7.9,0,.5-.4.9-.9.9h-2.8c-.8,0-1.3-.6-1.3-1.4.1-1.2.4-2.5.9-3.8.6-1.9,1.3-3.4,1.9-4.5l.5-.9c.3-.4.8-.6,1.3-.3h0Z"/>
            <path class="cls-3" d="M52.3,36.2h-5.4c0-1.1-.3-2.1-1-2.9-.6-.8-1.4-1.2-2.4-1.2s-1.7.3-2.4.9-1,1.3-1,2.2.4,1.7,1.3,2.5,1.9,1.5,3.1,2.2,2.4,1.4,3.7,2.2,2.3,1.9,3.2,3.3c1.1,1.8,1.5,4.1,1.2,6.7,0,1-.4,1.9-.9,2.7-2,3.1-4.6,4.6-7.9,4.6h-.7c-2.5,0-4.6-.9-6.3-2.6-1.7-1.7-2.6-3.8-2.6-6.3v-1.5h5.5v1.5c0,1,.4,1.8,1,2.5.7.7,1.5,1.1,2.5,1.1h1.1c.3,0,.6,0,.8-.2,1.4-.8,2.1-1.9,2.1-3s-.4-2.2-1.3-3.1-1.9-1.6-3.1-2.3c-1.2-.7-2.4-1.4-3.7-2.1-1.2-.7-2.3-1.7-3.2-3s-1.3-2.9-1.3-4.7.9-4.6,2.6-6.3,3.8-2.5,6.3-2.5,4.6.9,6.3,2.6,2.5,4,2.5,6.8h0Z"/>
            <path class="cls-3" d="M77.3,49.1v1.5c0,2.4-.8,4.5-2.5,6.3-1.7,1.7-3.8,2.6-6.2,2.6h-.8c-1.5,0-2.9-.4-4.1-1.3-2.8-2-4.2-4.5-4.2-7.6v-14.8c0-2.4.9-4.5,2.6-6.3,1.7-1.7,3.8-2.6,6.3-2.6h.2c2.5,0,4.6.9,6.3,2.6,1.7,1.8,2.5,4,2.5,6.8h-5.4c0-1.2-.3-2.2-1-2.9s-1.5-1.1-2.4-1.1c-1.4,0-2.5.7-3.3,2,0,.2-.2.4-.2.7v16.5c0,.2,0,.5.2.7.9,1.6,2.3,2.3,4.2,2,.2,0,.5,0,.7-.2,1.3-.7,1.9-1.7,1.9-3v-1.7h5.5l-.3-.2Z"/>
            <path class="cls-3" d="M89.1,27.3h8.6l4.7,17.8v13.8h-5.3v-9.4h-7.3v9.4h-5.3v-13.9l4.7-17.8h0ZM96.6,44.3l-2.7-11.7h-.9l-2.7,11.7h6.4-.1Z"/>
            <path class="cls-3" d="M123.1,27.3h5.3v31.7h-5.6l-5.6-15.2-1.6-5.1h-.2l.3,5.2v15h-5.3v-31.7h5.6l5.6,15,1.6,5.2h.2l-.3-5.3v-14.9h0Z"/>
            <path class="cls-3" d="M134.4,32.6v-5.3h17.8v5.3h-6.2v26.4h-5.5v-26.4h-6.1Z"/>
            <path class="cls-3" d="M158,27.3h16.2v5.3h-10.8v7.2h9.8v5.3h-9.8v8.6h11.1v5.3h-16.6v-31.7h.1Z"/>
          </g>
        </g>
      </g>
    </g>
  </g>
</svg>