<?xml version="1.0" encoding="UTF-8"?>
<svg id="Livello_1" xmlns="http://www.w3.org/2000/svg" viewBox="0 0 210 120">
  <defs>
    <style>
      .cls-1, .cls-2 {
        isolation: isolate;
      }

      .cls-2 {
        font-family: DecimaMonoCyr-Bold, 'Decima Mono Cyr';
        font-size: 11.32px;
        font-weight: 700;
      }

      .cls-2, .cls-3 {
        fill: #b5391a;
      }

      .cls-4 {
        fill: #afafaf;
      }
    </style>
  </defs>
  <rect class="cls-4" width="210" height="120"/>
  <g id="Livello_2">
    <g>
      <rect class="cls-3" x="34.89" y="70.57" width="140.07" height="2.8"/>
      <rect class="cls-3" x="34.79" y="91.14" width="140.16" height="2.8"/>
      <g class="cls-1">
        <text class="cls-2" transform="translate(34.16 85.2) scale(.91 1)"><tspan x="0" y="0">Trattoria con Aperitivo</tspan></text>
      </g>
    </g>
    <g>
      <path class="cls-3" d="M28.77,26.76l1.6.85c.43.23.6.74.43,1.19-.99,2.57-1.54,5.19-1.64,7.88-.02.51-.43.93-.94.93h-2.75c-.75,0-1.33-.64-1.26-1.37.13-1.19.42-2.46.87-3.81.63-1.89,1.26-3.37,1.89-4.46l.52-.86c.26-.43.82-.58,1.26-.35h.02Z"/>
      <path class="cls-3" d="M52.3,36.2h-5.43c0-1.15-.32-2.11-.97-2.9-.65-.78-1.44-1.18-2.39-1.18s-1.71.3-2.37.9-.99,1.34-.99,2.22.44,1.74,1.32,2.49,1.91,1.48,3.09,2.19,2.41,1.44,3.68,2.2,2.33,1.87,3.18,3.32c1.07,1.84,1.47,4.08,1.18,6.72-.1.95-.41,1.87-.92,2.67-1.96,3.06-4.58,4.58-7.86,4.58h-.69c-2.47,0-4.58-.87-6.31-2.61-1.74-1.74-2.61-3.83-2.61-6.27v-1.45h5.47v1.45c0,.97.35,1.8,1.04,2.51.69.71,1.52,1.06,2.5,1.07h1.08c.28,0,.57-.07.81-.21,1.38-.83,2.07-1.85,2.07-3.05s-.43-2.2-1.29-3.08-1.89-1.65-3.1-2.33c-1.2-.68-2.42-1.36-3.66-2.06-1.24-.7-2.29-1.7-3.16-3.02-.86-1.31-1.29-2.89-1.29-4.73,0-2.5.85-4.6,2.56-6.29s3.8-2.53,6.27-2.53,4.59.87,6.27,2.61c1.68,1.74,2.52,3.99,2.52,6.77h0Z"/>
      <path class="cls-3" d="M77.3,49.11v1.45c0,2.44-.85,4.53-2.54,6.27-1.69,1.73-3.78,2.6-6.25,2.6h-.79c-1.45,0-2.89-.43-4.08-1.27-2.82-1.98-4.23-4.54-4.23-7.65v-14.8c0-2.44.86-4.53,2.6-6.27,1.74-1.73,3.84-2.6,6.31-2.6h.17c2.53,0,4.63.88,6.29,2.63,1.67,1.75,2.5,4,2.5,6.75h-5.43c0-1.21-.33-2.19-.99-2.94s-1.47-1.13-2.41-1.13c-1.44,0-2.55.68-3.33,2.05-.11.2-.17.43-.17.66v16.5c0,.24.06.49.18.7.93,1.65,2.32,2.33,4.16,2.02.23-.04.46-.12.66-.23,1.27-.71,1.9-1.71,1.9-3v-1.72h5.43l.02-.02Z"/>
      <path class="cls-3" d="M89.15,27.29h8.62l4.7,17.84v13.85h-5.34v-9.42h-7.33v9.42h-5.34v-13.85l4.69-17.84ZM96.65,44.27l-2.72-11.68h-.95l-2.71,11.68h6.38Z"/>
      <path class="cls-3" d="M123.15,27.31h5.34v31.69s-5.64,0-5.64,0l-5.61-15.17-1.55-5.07h-.17l.3,5.25v14.98h-5.34v-31.69h5.63l5.57,14.98,1.6,5.25h.17l-.3-5.3s0-14.92,0-14.92Z"/>
      <path class="cls-3" d="M134.36,32.61v-5.3h17.8v5.3h-6.16v26.39h-5.51v-26.39s-6.13,0-6.13,0Z"/>
      <path class="cls-3" d="M158.01,27.32h16.2v5.3h-10.77v7.19h9.83v5.3h-9.83v8.6h11.12v5.3h-16.55v-31.69s0,0,0,0Z"/>
    </g>
  </g>
</svg>