<svg viewBox="0 0 161.59 67.24" xmlns="http://www.w3.org/2000/svg" id="Livello_1">
  <defs>
    <style>
      .cls-1 {
        font-family: DecimaMonoCyr-Bold, 'Decima Mono Cyr';
        font-size: 11.32px;
        font-weight: 700;
      }

      .cls-1, .cls-2 {
        fill: #fff;
      }

      .cls-2 {
        stroke-width: 0px;
      }
    </style>
  </defs>
  <g id="Livello_2">
    <g>
      <rect height="2.8" width="140.07" y="44.19" x="10.68" class="cls-2"></rect>
      <rect height="2.8" width="140.16" y="64.76" x="10.58" class="cls-2"></rect>
      <text transform="translate(9.95 58.82) scale(.91 1)" class="cls-1"><tspan y="0" x="0">Trattoria con Aperitivo</tspan></text>
    </g>
    <g>
      <path d="M4.56.38l1.6.85c.43.23.6.74.43,1.19-.99,2.57-1.54,5.19-1.64,7.88-.02.51-.43.93-.94.93-1.09,0-2.75,0-2.75,0-.75,0-1.33-.64-1.26-1.37.13-1.19.42-2.46.87-3.81.63-1.89,1.26-3.37,1.89-4.46l.52-.86c.26-.43.82-.58,1.26-.35Z" class="cls-2"></path>
      <path d="M28.09,9.82h-5.43c0-1.15-.32-2.11-.97-2.9-.65-.78-1.44-1.18-2.39-1.18s-1.71.3-2.37.9c-.66.6-.99,1.34-.99,2.22s.44,1.74,1.32,2.49c.88.75,1.91,1.48,3.09,2.19s2.41,1.44,3.68,2.2c1.27.76,2.33,1.87,3.18,3.32,1.07,1.84,1.47,4.08,1.18,6.72-.1.95-.41,1.87-.92,2.67-1.96,3.06-4.58,4.58-7.86,4.58h-.69c-2.47,0-4.58-.87-6.31-2.61-1.74-1.74-2.61-3.83-2.61-6.27v-1.45s5.47,0,5.47,0v1.45c0,.97.35,1.8,1.04,2.51.69.71,1.52,1.06,2.5,1.07h1.08c.28,0,.57-.07.81-.21,1.38-.83,2.07-1.85,2.07-3.05s-.43-2.2-1.29-3.08c-.86-.88-1.89-1.65-3.1-2.33-1.2-.68-2.42-1.36-3.66-2.06-1.24-.7-2.29-1.7-3.16-3.02-.86-1.31-1.29-2.89-1.29-4.73,0-2.5.85-4.6,2.56-6.29,1.71-1.69,3.8-2.53,6.27-2.53,2.5,0,4.59.87,6.27,2.61,1.68,1.74,2.52,3.99,2.52,6.77Z" class="cls-2"></path>
      <path d="M53.09,22.73v1.45c0,2.44-.85,4.53-2.54,6.27-1.69,1.73-3.78,2.6-6.25,2.6h-.79c-1.45,0-2.89-.43-4.08-1.27-2.82-1.98-4.23-4.54-4.23-7.65v-14.8c0-2.44.86-4.53,2.6-6.27,1.74-1.73,3.84-2.6,6.31-2.6h.17c2.53,0,4.63.88,6.29,2.63,1.67,1.75,2.5,4,2.5,6.75h-5.43c0-1.21-.33-2.19-.99-2.94-.66-.75-1.47-1.13-2.41-1.13-1.44,0-2.55.68-3.33,2.05-.11.2-.17.43-.17.66v16.5c0,.24.06.49.18.7.93,1.65,2.32,2.33,4.16,2.02.23-.04.46-.12.66-.23,1.27-.71,1.9-1.71,1.9-3v-1.72s5.43,0,5.43,0Z" class="cls-2"></path>
      <path d="M64.94.91h8.62s4.7,17.84,4.7,17.84v13.85s-5.34,0-5.34,0v-9.42s-7.33,0-7.33,0v9.42s-5.34,0-5.34,0v-13.85S64.94.91,64.94.91ZM72.44,17.89l-2.72-11.68h-.95s-2.71,11.68-2.71,11.68h6.38Z" class="cls-2"></path>
      <path d="M98.94.93h5.34s.01,31.69.01,31.69h-5.65s-5.61-15.17-5.61-15.17l-1.55-5.07h-.17s.3,5.25.3,5.25v14.98s-5.34,0-5.34,0V.92s5.63,0,5.63,0l5.57,14.98,1.6,5.25h.17s-.3-5.3-.3-5.3V.93Z" class="cls-2"></path>
      <path d="M110.15,6.23V.93s17.8,0,17.8,0v5.3s-6.16,0-6.16,0v26.39s-5.51,0-5.51,0V6.23s-6.13,0-6.13,0Z" class="cls-2"></path>
      <path d="M133.81.94h16.2s0,5.3,0,5.3h-10.77s0,7.19,0,7.19h9.83s0,5.3,0,5.3h-9.83s0,8.6,0,8.6h11.12s0,5.3,0,5.3h-16.55s-.01-31.69-.01-31.69Z" class="cls-2"></path>
    </g>
  </g>
</svg>