<?xml version="1.0" encoding="UTF-8"?>
<svg id="Livello_1" xmlns="http://www.w3.org/2000/svg" viewBox="0 0 210 120">
  <defs>
    <style>
      .cls-1 {
        fill: #fff;
      }

      .cls-2 {
        fill: #b22222;
      }
    </style>
  </defs>
  <g id="Livello_1-2" data-name="Livello_1">
    <rect class="cls-2" width="210" height="120"/>
  </g>
  <g>
    <polygon class="cls-1" points="38.9 47.8 38.82 47.8 37.02 43.07 34.23 43.07 34.23 56.93 36.5 56.93 36.5 48.69 36.37 46.69 36.49 46.65 37.91 50.38 39.8 50.38 41.24 46.65 41.36 46.69 41.22 48.69 41.22 56.93 43.5 56.93 43.5 43.07 40.71 43.07 38.9 47.8"/>
    <path class="cls-1" d="M52.52,53.86c-.04.38-.25.72-.58.91-.37.28-.82.43-1.28.42-.67.06-1.25-.44-1.31-1.11,0-.04,0-.08,0-.12.06-.68.64-1.19,1.32-1.17l1.85-.18v1.25ZM54.87,56.93v-6.63c.09-1.83-1.31-3.38-3.13-3.48-.15,0-.3,0-.45,0-1.04-.09-2.06.28-2.81,1-.58.55-.92,1.32-.95,2.12h2.31c.09-.63.64-1.09,1.27-1.08.74-.04,1.38.54,1.42,1.28,0,.07,0,.14,0,.21v.41l-1.9.16c-.95.04-1.87.37-2.64.93-.66.51-1.03,1.31-1,2.14-.01.85.33,1.66.95,2.24.64.55,1.46.85,2.3.83.47,0,.94-.08,1.37-.26.29-.11.56-.26.81-.43.09-.08.18-.17.26-.26v.77l2.2.04Z"/>
    <path class="cls-1" d="M64.54,50.07c0-.69.3-1.17.91-1.17.4.03.71.37.7.77v7.27h2.13v-7.26c.13-1.41-.91-2.65-2.32-2.78-.06,0-.11,0-.17,0-.69-.04-1.36.23-1.84.73l-.12-.17c-.61-.62-1.56-.74-2.3-.28-.38.16-.72.4-1,.71v-.85h-2v9.9h2.16v-6.86c-.05-.6.4-1.12,1-1.17.39.01.69.34.67.73,0,.01,0,.03,0,.04v7.27h2.16l.02-6.87Z"/>
    <path class="cls-1" d="M77.43,50.07c0-.69.3-1.17.92-1.17.4.03.7.37.69.77v7.27h2.19v-7.26c.12-1.41-.93-2.66-2.34-2.78-.05,0-.11,0-.16,0-.69-.03-1.36.23-1.84.73l-.12-.17c-.6-.62-1.56-.74-2.3-.28-.38.16-.72.4-1,.71v-.85h-2v9.9h2.15v-6.86c-.05-.6.4-1.12,1-1.17.39.02.7.35.68.74,0,.01,0,.02,0,.03v7.27h2.13v-6.87Z"/>
    <path class="cls-1" d="M90.11,53.86c-.03.38-.25.71-.57.91-.37.28-.83.43-1.29.42-.67.05-1.26-.45-1.31-1.13,0-.03,0-.07,0-.1.07-.66.62-1.17,1.29-1.17l1.84-.18.04,1.25ZM92.47,56.93v-6.63c.09-1.83-1.31-3.38-3.13-3.48-.15,0-.3,0-.45,0-1.04-.09-2.07.28-2.82,1-.6.55-.96,1.31-1,2.12h2.32c.1-.65.67-1.11,1.32-1.08.74-.04,1.37.53,1.41,1.27,0,.07,0,.15,0,.22v.41l-1.88.16c-.95.05-1.86.37-2.63.93-.66.51-1.03,1.31-1,2.14,0,.86.36,1.67,1,2.24,1.02.88,2.45,1.11,3.7.61.29-.11.56-.25.82-.43.11-.1.19-.2.25-.26v.77h2.1Z"/>
    <polygon class="cls-1" points="108.83 56.93 116.04 56.93 116.04 54.62 111.18 54.62 111.18 50.85 115.48 50.85 115.48 48.56 111.18 48.56 111.18 45.38 115.9 45.38 115.9 43.07 108.83 43.07 108.83 56.93"/>
    <polygon class="cls-1" points="123.31 45.13 123.31 54.87 119.95 54.87 119.95 56.93 128.68 56.93 128.68 54.87 125.73 54.87 125.73 43.07 120.38 43.07 120.38 45.13 123.31 45.13"/>
    <polygon class="cls-1" points="131.59 47.03 131.59 50.91 133.79 56.93 137.3 56.93 139.47 50.91 139.47 47.03 137.06 47.03 137.06 50.83 135.63 55.07 135.43 55.07 134.03 50.83 134.03 47.03 131.59 47.03"/>
    <polygon class="cls-1" points="146.63 49.09 146.63 54.87 143.2 54.87 143.2 56.93 151.95 56.93 151.95 54.87 149.02 54.87 149.02 47.03 143.34 47.03 143.34 49.09 146.63 49.09"/>
    <rect class="cls-1" x="146.55" y="43.07" width="2.57" height="2.53"/>
    <path class="cls-1" d="M161.62,46.85c-.41,0-.81.1-1.17.28-.26.12-.5.26-.73.43-.09.09-.17.18-.24.28l-.06-.77h-2.27v7.8h-2v2.06h8.41v-2.06h-4v-4.32c.01-.92.75-1.65,1.67-1.66.72.11,1.23.77,1.15,1.49h2.33c.02-.88-.26-1.75-.79-2.46-.53-.72-1.39-1.12-2.28-1.07"/>
    <path class="cls-1" d="M173.4,53.86c-.04.38-.25.71-.57.91-.37.28-.83.42-1.29.42-.67.05-1.26-.45-1.31-1.13,0-.03,0-.07,0-.1.06-.68.65-1.19,1.33-1.17l1.84-.18v1.25ZM175.76,56.93v-6.63c.1-1.83-1.31-3.38-3.13-3.48-.15,0-.3,0-.46,0-1.04-.09-2.06.28-2.81,1-.58.56-.92,1.32-.95,2.12h2.32c.08-.64.62-1.11,1.26-1.11.74-.04,1.38.54,1.42,1.28,0,.07,0,.14,0,.21v.44l-1.9.16c-.95.05-1.87.37-2.64.93-.66.51-1.03,1.31-1,2.14-.02.85.32,1.67.95,2.24.64.58,1.47.89,2.33.87.47,0,.94-.08,1.37-.26.29-.11.56-.25.81-.43.09-.08.18-.17.26-.26v.77h2.18Z"/>
    <path class="cls-1" d="M108.11,75.39c-.43,0-.6,0-.6-.28,0-.08,0-.17,0-.25h0l.72-4.66-.4-.13c-.33-.11-.66-.21-1-.28-.46-.09-.93-.14-1.4-.14-.77-.03-1.53.21-2.13.69-.54.43-.9,1.04-1,1.72l-.32,2.33c0,.16,0,.31,0,.47-.04,1.1.82,2.03,1.92,2.07.07,0,.14,0,.21,0,.7.02,1.38-.23,1.9-.7.34.43.86.67,1.41.63h.52l.17-1.47ZM104.05,72.07c.1-.58.6-1,1.18-1,.38-.01.76.06,1.11.2l-.46,3.3c-.17.56-.7.94-1.29.91-.45.04-.84-.29-.88-.74,0-.01,0-.02,0-.03,0-.12,0-.23,0-.35l.34-2.29ZM98.23,69.65c-.77-.02-1.53.23-2.13.72-.56.44-.92,1.09-1,1.79l-.31,2.21v.44c-.01.59.24,1.16.7,1.54.53.41,1.18.61,1.84.58.78.03,1.54-.22,2.15-.71.58-.51.94-1.23,1-2h-1.82c-.01.68-.56,1.22-1.24,1.22-.47.04-.89-.31-.93-.79,0-.04,0-.08,0-.11v-.32l.31-2.11c.09-.58.59-1,1.18-1,.49-.03.9.34.93.83,0,.04,0,.08,0,.12,0,.08,0,.15,0,.23h1.75v-.44c-.01-1.23-1.02-2.22-2.25-2.21-.06,0-.12,0-.18,0M92.56,75.07l-.29.11c-.56.2-1.14.31-1.73.32-.74,0-1-.23-1.1-.68l2.25-.75c1.18-.19,2.02-1.25,1.95-2.44,0-1.12-1-2-2.54-2-.77-.02-1.52.24-2.11.73-.56.46-.92,1.13-1,1.85l-.28,2.14v.45c0,1.25,1,2.11,2.63,2.11.68,0,1.35-.11,2-.32l.22-1.52ZM89.77,72.07c.09-.58.6-1.01,1.19-1,.61,0,.94.34.94.72.03.36-.22.69-.57.78l-1.72.6.16-1.1ZM80.77,74.07c-.02.26-.02.52,0,.78.02,1.14.96,2.04,2.1,2.02.08,0,.15,0,.23-.02,1.5.18,2.87-.88,3.08-2.38v-.12h-1.73v.1c-.12.57-.63.97-1.21.95-.42.06-.81-.22-.88-.64-.01-.07-.01-.14,0-.22.01-.18.03-.36.06-.54l.39-2.83h3.42l.21-1.46h-3.42l.26-1.83h-1.67l-.25,1.83h-1.22l-.21,1.46h1.22l-.38,2.9ZM76.57,69.6c-1.53-.09-2.88,1-3.13,2.51l-.31,2.21v.44c0,.59.25,1.16.7,1.54.53.41,1.18.61,1.85.58,1.54.12,2.91-.97,3.13-2.5l.31-2.21c0-.15,0-.29,0-.44.02-.59-.25-1.15-.71-1.52-.52-.43-1.17-.64-1.84-.61M75.8,75.43c-.49.03-.91-.34-.95-.83,0-.02,0-.05,0-.07,0-.11,0-.21,0-.32l.31-2.11c.1-.6.63-1.02,1.23-1,.49-.06.93.29.99.77,0,.04,0,.08,0,.13,0,.11,0,.21,0,.32l-.3,2.11c-.11.59-.64,1.02-1.24,1M65.65,69.74l-1,7h1.71l.66-4.59c.06-.29.22-.56.46-.74.24-.22.55-.34.88-.34.5-.05.95.31,1,.81,0,.02,0,.03,0,.05,0,.16,0,.31,0,.47l-.6,4.34h1.57l.61-4.46c0-.17,0-.34,0-.51.06-1.14-.81-2.11-1.95-2.17-.05,0-.11,0-.16,0-.31,0-.61.07-.89.2-.22.09-.42.19-.62.32-.09.06-.17.13-.24.2l.07-.58h-1.5ZM57.35,76.74h5.18l.22-1.63h-3.52l.38-2.67h3.09l.23-1.62h-3.14l.32-2.24h3.38l.23-1.64h-5.07l-1.3,9.8ZM51.12,72.07l-.23,1.63h3.89l.23-1.63h-3.89Z"/>
  </g>
</svg>