<?xml version="1.0" encoding="UTF-8"?>
<svg id="Livello_1" xmlns="http://www.w3.org/2000/svg" viewBox="0 0 210 120">
  <defs>
    <style>
      .cls-1 {
        fill: #fff;
      }

      .cls-2 {
        fill: #6b7238;
      }
    </style>
  </defs>
  <g id="Livello_1-2" data-name="Livello_1">
    <rect class="cls-2" width="210" height="120"/>
  </g>
  <g>
    <path class="cls-1" d="M34.1,40.15h3.5v17h7.8v3.4h-11.3v-20.4Z"/>
    <path class="cls-1" d="M54.4,40.15h5.5l3.3,11.4v8.9h-3.4v-6h-5.3v6h-3.4v-8.8l3.3-11.5ZM59.5,51.05l-2-7.5h-.6l-2,7.5h4.6Z"/>
    <path class="cls-1" d="M89.2,54.15v.9c0,1.6-.6,3.1-1.7,4.1-2.4,2.2-6,2.2-8.4,0-1.1-1-1.7-2.5-1.7-4v-9.6c0-1.5.6-3,1.7-4,1.1-1.1,2.6-1.7,4.2-1.7,4.3,0,5.8,3.4,5.8,5.9h-3.5c.1-1.3-.8-2.5-2.1-2.6h-.2c-1.3-.1-2.3.9-2.4,2.2v9.8c0,1.2.9,2.3,2.2,2.3h.2c1.3.1,2.5-1,2.5-2.3v-1h3.4Z"/>
    <path class="cls-1" d="M107,40.15v15c0,1.5-.6,3-1.7,4-1.1,1.1-2.7,1.7-4.3,1.7-1.6.1-3.2-.5-4.3-1.7-1.1-1-1.7-2.5-1.7-4v-15h3.4v15.1c.1,1.3,1.3,2.3,2.6,2.3,1.3.1,2.4-.9,2.6-2.2v-15.2h3.4Z"/>
    <path class="cls-1" d="M124.2,54.15v.9c0,1.6-.6,3.1-1.7,4.1-2.4,2.2-6,2.2-8.4,0-1.1-1-1.7-2.5-1.8-4v-9.6c0-1.5.6-3,1.8-4,1.1-1.1,2.6-1.7,4.2-1.7,4.3,0,5.8,3.4,5.8,5.9h-3.5c.1-1.3-.8-2.5-2.1-2.6h-.2c-1.3-.1-2.3.9-2.4,2.2v9.8c0,1.2.9,2.3,2.2,2.3h.2c1.3.1,2.5-1,2.5-2.3v-1h3.4Z"/>
    <path class="cls-1" d="M129.5,43.45v-3.3h11.4v3.2h-3.9v13.9h3.9v3.2h-11.4v-3.2h4v-13.8h-4Z"/>
    <path class="cls-1" d="M155,60.55l-5.9-13.5h-.1c.2,2.1.3,4.2.3,6.3v7.1h-3.2v-20.3h3.1l6,13.4h.1c-.2-2.2-.3-4.3-.3-6.5v-6.9h3.2v20.4h-3.2Z"/>
    <path class="cls-1" d="M167.1,40.15h5.5l3.3,11.4v8.9h-3.4v-6h-5.3v6h-3.4v-8.8l3.3-11.5ZM172.1,51.05l-2-7.5h-.6l-2,7.5h4.6Z"/>
    <path class="cls-1" d="M40.6,79.55v11.2h-1.8v-.6c-.5.5-1.1.7-1.8.7s-1.5-.3-2-.8c-.6-.4-.9-1.1-.9-1.9v-2.8c0-.8.3-1.5.8-2,.5-.5,1.3-.8,2-.8.5,0,1,.1,1.5.4l.2.2v-3.6h2ZM36.1,88.15c0,.6.6,1.1,1.2,1.1h0c.6,0,1.2-.5,1.3-1.1v-2.7c0-.7-.6-1.2-1.3-1.2h0c-.6,0-1.2.5-1.2,1.1v2.8Z"/>
    <path class="cls-1" d="M44.2,84.45v-1.7h4.6v6.4h2.3v1.7h-7.1v-1.7h2.8v-4.7h-2.6ZM46.7,81.65v-2h2.1v2h-2.1Z"/>
    <path class="cls-1" d="M68.2,82.45l-1.2,3.2h-1.6l-1.3-3.2h0c.1,1.4.1,3.2.1,5.6v2.7h-1.8v-11.2h2.1l1.7,4.4,1.6-4.4h2.1v11.2h-1.8v-5.7l.1-2v-.6h0Z"/>
    <path class="cls-1" d="M73.3,85.15c0-.7.3-1.3.8-1.7.6-.6,1.4-.9,2.3-.8,1.5-.1,2.8,1,2.9,2.4v5.8h-1.8v-.7l-.2.2c-.2.1-.4.3-.7.3-.4.1-.7.2-1.1.2-.7,0-1.4-.2-1.9-.7s-.8-1.1-.8-1.8.3-1.3.8-1.7c.6-.5,1.4-.7,2.1-.8l1.5-.1v-.3c.1-.6-.4-1.1-1-1.2h-.2c-.5,0-.9.4-1,.9,0,0-1.7,0-1.7,0ZM76.9,89.05c.3-.2.4-.4.5-.7v-1l-1.5.1c-.6,0-1,.4-1.1,1,0,.6.4,1,1,1h.1c.3-.1.7-.2,1-.4Z"/>
    <path class="cls-1" d="M86.7,90.75h-1.8v-5.9c0-.3-.2-.6-.5-.6h0c-.5,0-.9.5-.8.9h0v5.6h-1.7v-8h1.6v.7c.2-.2.5-.4.8-.6.6-.4,1.4-.3,1.9.2l.1.1c.4-.4.9-.6,1.5-.6,1.1,0,2,1,2,2.1v6h-1.7v-5.9c0-.3-.2-.6-.6-.6-.5,0-.7.4-.7.9l-.1,5.7Z"/>
    <path class="cls-1" d="M97,90.75h-1.8v-5.9c0-.3-.2-.6-.5-.6h0c-.5,0-.8.5-.8.9v5.6h-1.8v-8h1.6v.7c.2-.2.5-.4.8-.6.6-.4,1.4-.3,1.8.2l.1.1c.4-.4.9-.6,1.5-.6,1.1,0,2,1,2,2.1v6h-1.7v-5.9c0-.3-.2-.6-.6-.6-.5,0-.7.4-.7.9l.1,5.7Z"/>
    <path class="cls-1" d="M103.3,85.15c0-.7.3-1.3.8-1.7.6-.6,1.4-.9,2.3-.8,1.5-.1,2.8,1,2.9,2.4v5.8h-1.8v-.7q-.1.1-.2.2c-.2.1-.4.3-.7.3-1,.4-2.2.2-3-.5-.5-.5-.8-1.1-.8-1.8s.3-1.3.8-1.7c.6-.5,1.4-.7,2.1-.8l1.5-.1v-.3c.1-.6-.4-1.1-1-1.2h-.2c-.5,0-.9.4-1,.9,0,0-1.7,0-1.7,0ZM106.9,89.05c.3-.2.4-.4.5-.7v-1l-1.5.1c-.6,0-1,.4-1.1,1,0,.6.4,1,1,1h.1c.3-.1.7-.2,1-.4Z"/>
    <path class="cls-1" d="M122.2,79.55h5.7v1.9h-3.8v2.6h3.5v1.9h-3.5v3h4v1.9h-5.9v-11.3Z"/>
    <path class="cls-1" d="M131.4,81.25v-1.7h4.3v9.6h2.4v1.7h-7v-1.7h2.7v-7.9h-2.4Z"/>
    <path class="cls-1" d="M142.5,82.75v3.1l1.1,3.4h.2l1.2-3.4v-3.1h1.9v3.1l-1.8,4.9h-2.8l-1.8-4.9v-3.1h2Z"/>
    <path class="cls-1" d="M149.9,84.45v-1.7h4.6v6.4h2.4v1.7h-7.1v-1.7h2.8v-4.7h-2.7ZM152.5,81.65v-2h2.1v2h-2.1Z"/>
    <path class="cls-1" d="M166.4,83.45c.4.6.7,1.3.6,2h-1.9c.1-.6-.3-1.1-.9-1.2-.7,0-1.3.6-1.3,1.3v3.6h3.2v1.7h-6.8v-1.7h1.6v-6.4h1.8l.1.7q.1-.1.2-.2c.2-.1.4-.3.6-.4.3-.1.6-.2.9-.2.7-.1,1.4.3,1.9.8Z"/>
    <path class="cls-1" d="M169.9,85.15c0-.6.3-1.3.8-1.7.6-.6,1.4-.9,2.3-.8,1.5-.1,2.8,1,2.9,2.4v5.8h-1.8v-.7q-.1.1-.2.2c-.2.1-.4.3-.6.3-1,.4-2.2.2-3-.5-.5-.5-.8-1.1-.8-1.8s.3-1.3.8-1.7c.6-.5,1.4-.7,2.1-.8l1.5-.1v-.3c.1-.6-.4-1.1-1-1.2h-.2c-.5,0-.9.4-1,.9,0,0-1.8,0-1.8,0ZM173.5,89.05c.3-.2.4-.4.5-.7v-1l-1.5.1c-.6,0-1,.4-1.1.9h0c0,.6.4,1,1,1h.1c.3,0,.7-.1,1-.3Z"/>
    <rect class="cls-1" x="34.1" y="29.15" width="141.8" height="4"/>
    <rect class="cls-1" x="34.1" y="67.85" width="141.8" height="4"/>
  </g>
</svg>