<svg xml:space="preserve" style="enable-background:new 0 0 141.8 61.8;" viewBox="0 0 141.8 61.8" y="0px" x="0px" xmlns:xlink="http://www.w3.org/1999/xlink" xmlns="http://www.w3.org/2000/svg" id="Livello_1" version="1.1">
<style type="text/css">
	.st0{fill:#FFFFFF;}
</style>
<g>
	<path d="M0,11h3.5v17h7.8v3.4H0V11z" class="st0"></path>
	<path d="M20.3,11h5.5l3.3,11.4v8.9h-3.4v-6h-5.3v6H17v-8.8L20.3,11z M25.4,21.9l-2-7.5h-0.6l-2,7.5H25.4z" class="st0"></path>
	<path d="M55.1,25v0.9c0,1.6-0.6,3.1-1.7,4.1c-2.4,2.2-6,2.2-8.4,0c-1.1-1-1.7-2.5-1.7-4v-9.6c0-1.5,0.6-3,1.7-4
		c1.1-1.1,2.6-1.7,4.2-1.7c4.3,0,5.8,3.4,5.8,5.9h-3.5c0.1-1.3-0.8-2.5-2.1-2.6c-0.1,0-0.1,0-0.2,0c-1.3-0.1-2.3,0.9-2.4,2.2
		c0,0,0,0.1,0,0.1V26c0,1.2,0.9,2.3,2.2,2.3c0.1,0,0.2,0,0.2,0c1.3,0.1,2.5-1,2.5-2.3c0,0,0-0.1,0-0.1V25H55.1z" class="st0"></path>
	<path d="M72.9,11v15c0,1.5-0.6,3-1.7,4c-1.1,1.1-2.7,1.7-4.3,1.7c-1.6,0.1-3.2-0.5-4.3-1.7c-1.1-1-1.7-2.5-1.7-4V11
		h3.4v15.1c0.1,1.3,1.3,2.3,2.6,2.3c1.3,0.1,2.4-0.9,2.6-2.2V11H72.9z" class="st0"></path>
	<path d="M90.1,25v0.9c0,1.6-0.6,3.1-1.7,4.1c-2.4,2.2-6,2.2-8.4,0c-1.1-1-1.7-2.5-1.8-4v-9.6c0-1.5,0.6-3,1.8-4
		c1.1-1.1,2.6-1.7,4.2-1.7c4.3,0,5.8,3.4,5.8,5.9h-3.5c0.1-1.3-0.8-2.5-2.1-2.6c-0.1,0-0.1,0-0.2,0c-1.3-0.1-2.3,0.9-2.4,2.2
		c0,0,0,0.1,0,0.1V26c0,1.2,0.9,2.3,2.2,2.3c0.1,0,0.2,0,0.2,0c1.3,0.1,2.5-1,2.5-2.3c0,0,0-0.1,0-0.1V25H90.1z" class="st0"></path>
	<path d="M95.4,14.3V11h11.4v3.2h-3.9v13.9h3.9v3.2H95.4v-3.2h4V14.3H95.4z" class="st0"></path>
	<path d="M120.9,31.4L115,17.9h-0.1c0.2,2.1,0.3,4.2,0.3,6.3v7.1H112V11h3.1l6,13.4h0.1c-0.2-2.2-0.3-4.3-0.3-6.5V11
		h3.2v20.4H120.9z" class="st0"></path>
	<path d="M133,11h5.5l3.3,11.4v8.9h-3.4v-6h-5.3v6h-3.4v-8.8L133,11z M138,21.9l-2-7.5h-0.6l-2,7.5H138z" class="st0"></path>
	<path d="M6.5,50.4v11.2H4.7v-0.6c-0.5,0.5-1.1,0.7-1.8,0.7c-0.7,0-1.5-0.3-2-0.8C0.3,60.5,0,59.8,0,59v-2.8
		c0-0.8,0.3-1.5,0.8-2c0.5-0.5,1.3-0.8,2-0.8c0.5,0,1,0.1,1.5,0.4L4.5,54v-3.6H6.5z M2,59c0,0.6,0.6,1.1,1.2,1.1c0,0,0,0,0,0
		c0.6,0,1.2-0.5,1.3-1.1v-2.7c0-0.7-0.6-1.2-1.3-1.2c0,0,0,0,0,0c-0.6,0-1.2,0.5-1.2,1.1V59z" class="st0"></path>
	<path d="M10.1,55.3v-1.7h4.6V60H17v1.7H9.9V60h2.8v-4.7H10.1z M12.6,52.5v-2h2.1v2H12.6z" class="st0"></path>
	<path d="M34.1,53.3l-1.2,3.2h-1.6l-1.3-3.2l0,0c0.1,1.4,0.1,3.2,0.1,5.6v2.7h-1.8V50.4h2.1l1.7,4.4l1.6-4.4h2.1v11.2
		H34v-2.8c0-1,0-2,0-2.9l0.1-2L34.1,53.3L34.1,53.3z" class="st0"></path>
	<path d="M39.2,56c0-0.7,0.3-1.3,0.8-1.7c0.6-0.6,1.4-0.9,2.3-0.8c1.5-0.1,2.8,1,2.9,2.4c0,0.1,0,0.2,0,0.4v5.4h-1.8V61
		c-0.1,0.1-0.1,0.1-0.2,0.2c-0.2,0.1-0.4,0.3-0.7,0.3c-0.4,0.1-0.7,0.2-1.1,0.2c-0.7,0-1.4-0.2-1.9-0.7c-0.5-0.5-0.8-1.1-0.8-1.8
		c0-0.7,0.3-1.3,0.8-1.7c0.6-0.5,1.4-0.7,2.1-0.8l1.5-0.1v-0.3c0.1-0.6-0.4-1.1-1-1.2c-0.1,0-0.1,0-0.2,0c-0.5,0-0.9,0.4-1,0.9H39.2
		z M42.8,59.9c0.3-0.2,0.4-0.4,0.5-0.7v-1l-1.5,0.1c-0.6,0-1,0.4-1.1,1c0,0.6,0.4,1,1,1c0,0,0,0,0.1,0
		C42.1,60.2,42.5,60.1,42.8,59.9z" class="st0"></path>
	<path d="M52.6,61.6h-1.8v-5.9c0-0.3-0.2-0.6-0.5-0.6c0,0,0,0,0,0c-0.5,0-0.9,0.5-0.8,0.9c0,0,0,0,0,0v5.6h-1.7v-8h1.6
		v0.7c0.2-0.2,0.5-0.4,0.8-0.6c0.6-0.4,1.4-0.3,1.9,0.2l0.1,0.1c0.4-0.4,0.9-0.6,1.5-0.6c1.1,0,2,1,2,2.1c0,0,0,0.1,0,0.1v5.9h-1.7
		v-5.9c0-0.3-0.2-0.6-0.6-0.6c-0.5,0-0.7,0.4-0.7,0.9L52.6,61.6z" class="st0"></path>
	<path d="M62.9,61.6h-1.8v-5.9c0-0.3-0.2-0.6-0.5-0.6c0,0,0,0,0,0c-0.5,0-0.8,0.5-0.8,0.9v5.6H58v-8h1.6v0.7
		c0.2-0.2,0.5-0.4,0.8-0.6c0.6-0.4,1.4-0.3,1.8,0.2l0.1,0.1c0.4-0.4,0.9-0.6,1.5-0.6c1.1,0,2,1,2,2.1c0,0,0,0.1,0,0.1v5.9h-1.7v-5.9
		c0-0.3-0.2-0.6-0.6-0.6c-0.5,0-0.7,0.4-0.7,0.9L62.9,61.6z" class="st0"></path>
	<path d="M69.2,56c0-0.7,0.3-1.3,0.8-1.7c0.6-0.6,1.4-0.9,2.3-0.8c1.5-0.1,2.8,1,2.9,2.4c0,0.1,0,0.2,0,0.4v5.4h-1.8V61
		c-0.1,0.1-0.1,0.1-0.2,0.2c-0.2,0.1-0.4,0.3-0.7,0.3c-1,0.4-2.2,0.2-3-0.5c-0.5-0.5-0.8-1.1-0.8-1.8c0-0.7,0.3-1.3,0.8-1.7
		c0.6-0.5,1.4-0.7,2.1-0.8l1.5-0.1v-0.3c0.1-0.6-0.4-1.1-1-1.2c-0.1,0-0.1,0-0.2,0c-0.5,0-0.9,0.4-1,0.9H69.2z M72.8,59.9
		c0.3-0.2,0.4-0.4,0.5-0.7v-1l-1.5,0.1c-0.6,0-1,0.4-1.1,1c0,0.6,0.4,1,1,1c0,0,0,0,0.1,0C72.1,60.2,72.5,60.1,72.8,59.9z" class="st0"></path>
	<path d="M88.1,50.4h5.7v1.9H90v2.6h3.5v1.9H90v3h4v1.9h-5.9V50.4z" class="st0"></path>
	<path d="M97.3,52.1v-1.7h4.3V60h2.4v1.7h-7V60h2.7v-7.9H97.3z" class="st0"></path>
	<path d="M108.4,53.6v3.1l1.1,3.4h0.2l1.2-3.4v-3.1h1.9v3.1l-1.8,4.9h-2.8l-1.8-4.9v-3.1H108.4z" class="st0"></path>
	<path d="M115.8,55.3v-1.7h4.6V60h2.4v1.7h-7.1V60h2.8v-4.7H115.8z M118.4,52.5v-2h2.1v2H118.4z" class="st0"></path>
	<path d="M132.3,54.3c0.4,0.6,0.7,1.3,0.6,2H131c0.1-0.6-0.3-1.1-0.9-1.2c-0.7,0-1.3,0.6-1.3,1.3V60h3.2v1.7h-6.8V60
		h1.6v-6.4h1.8l0.1,0.7c0.1-0.1,0.1-0.1,0.2-0.2c0.2-0.1,0.4-0.3,0.6-0.4c0.3-0.1,0.6-0.2,0.9-0.2C131.1,53.4,131.8,53.8,132.3,54.3
		z" class="st0"></path>
	<path d="M135.8,56c0-0.6,0.3-1.3,0.8-1.7c0.6-0.6,1.4-0.9,2.3-0.8c1.5-0.1,2.8,1,2.9,2.4c0,0.1,0,0.2,0,0.4v5.4H140V61
		c-0.1,0.1-0.1,0.1-0.2,0.2c-0.2,0.1-0.4,0.3-0.6,0.3c-1,0.4-2.2,0.2-3-0.5c-0.5-0.5-0.8-1.1-0.8-1.8c0-0.7,0.3-1.3,0.8-1.7
		c0.6-0.5,1.4-0.7,2.1-0.8l1.5-0.1v-0.3c0.1-0.6-0.4-1.1-1-1.2c-0.1,0-0.1,0-0.2,0c-0.5,0-0.9,0.4-1,0.9H135.8z M139.4,59.9
		c0.3-0.2,0.4-0.4,0.5-0.7v-1l-1.5,0.1c-0.6,0-1,0.4-1.1,0.9c0,0,0,0,0,0c0,0.6,0.4,1,1,1c0,0,0,0,0.1,0
		C138.7,60.2,139.1,60.1,139.4,59.9z" class="st0"></path>
	<rect height="4" width="141.8" class="st0"></rect>
	<rect height="4" width="141.8" class="st0" y="38.7"></rect>
</g>
</svg>
