<?xml version="1.0" encoding="UTF-8"?>
<svg xmlns="http://www.w3.org/2000/svg" version="1.1" viewBox="0 0 46.7 29">
  <defs>
    <style>
      .cls-1 {
        fill: #454f1f;
      }

      .cls-2 {
        fill: #9f191b;
      }

      .cls-3 {
        fill: #372c43;
      }

      .cls-4 {
        fill: #d6ad27;
      }

      .cls-5 {
        opacity: .4;
      }

      .cls-6 {
        fill: #22334f;
      }
    </style>
  </defs>
  <!-- Generator: Adobe Illustrator 28.6.0, SVG Export Plug-In . SVG Version: 1.2.0 Build 709)  -->
  <g>
    <g id="Layer_1">
      <g>
        <g class="cls-5">
          <path class="cls-3" d="M0,16.9v-.5h.2c.2,0,.5,0,.7-.1.2-.1.3-.3.3-.7v-6c-.1-.3-.2-.5-.3-.6-.3-.1-.5-.2-.7-.2H0v-.5h2.7l2.5,6.9,2.5-6.9h2.7v.5h-.1c-.2,0-.5,0-.7.1-.3.2-.4.4-.4.8v5.8c0,.4.1.6.3.7s.5.2.7.1h.1v.5h-3.1v-.5h0c.2,0,.4,0,.6-.1,0-.1.2-.3.2-.6v-6.4l-2.7,7.7h-.6l-2.8-7.7v6.3c0,.4,0,.6.2.7.2.1.4.2.6.1h0v.5H0s0,.1,0,0Z"/>
          <path class="cls-3" d="M13.3,17c-.5,0-1-.1-1.3-.5-.4-.4-.6-.9-.5-1.4,0-.6.2-1.1.7-1.4.6-.4,1.3-.5,2.1-.5h1v-.7c0-.3,0-.5-.1-.8,0-.2-.1-.4-.3-.5-.3-.2-.5-.2-.8-.2s-.5,0-.7.2c-.2.1-.3.3-.3.5-.1.1-.1.4-.1.6-.3,0-.5,0-.8-.2-.1-.1-.2-.4-.2-.6,0-.3.1-.5.3-.7s.5-.3.8-.4c.4-.1.7-.1,1.1-.1.6,0,1.2.1,1.6.5.4.4.6,1,.6,1.6v3.1c0,.2,0,.5.2.7.2.1.4.2.6.2h0v.5h-1.6l-.2-1h-.1c-.2.2-.3.4-.5.6s-.3.3-.6.4-.6.1-.9,0ZM13.6,16.3c.4,0,.9-.1,1.2-.4.3-.3.5-.8.4-1.2v-1h-.8c-.5,0-1,.1-1.4.4-.3.3-.4.7-.4,1.1,0,.7.4,1.1,1,1.1h0Z"/>
          <path class="cls-3" d="M18,16.9v-.5h.2c.2,0,.5,0,.7-.1s.3-.3.3-.7v-3.8c0-.4-.1-.6-.3-.7-.3-.1-.5-.1-.7-.1h0v-.5h1.8v1h.2c.1-.3.3-.5.5-.7.2-.1.4-.3.6-.3.2-.1.5-.1.7-.1.4,0,.7.1,1,.2.3.2.6.5.7.8h.1c.1-.3.3-.5.5-.7.2-.1.4-.3.6-.3.2-.1.5-.1.7-.1.5,0,1.1.2,1.4.6.4.5.6,1.1.5,1.8v2.8c0,.4.1.6.3.7.2.1.4.2.7.1h0v.5h-2v-4.2c0-.4-.1-.8-.3-1.2-.2-.3-.6-.5-1-.4-.3,0-.6.1-.8.2-.2.2-.3.4-.4.6v3.7c0,.4.1.6.3.7.2.1.4.2.7.1h0v.5h-2v-4.1c0-.4-.1-.8-.3-1.2-.2-.3-.6-.5-1-.4-.3,0-.6.1-.8.3-.2.2-.4.4-.4.7-.1.3-.1.7-.1,1v2.5c0,.4.1.6.3.7.2.1.5.1.7.1h0v.5s-3.4,0-3.4,0Z"/>
          <path class="cls-3" d="M29.4,16.9v-.5h.2c.2,0,.5,0,.7-.1s.3-.3.3-.7v-3.8c0-.4-.1-.6-.3-.7-.3-.1-.5-.1-.7-.1h0v-.5h1.9v1h.2c.1-.3.3-.5.5-.7.2-.1.4-.3.6-.3.2-.1.5-.1.7-.1.4,0,.7.1,1,.2.3.2.6.5.7.8h0c0-.3.3-.5.5-.7.2-.1.4-.3.6-.3.2-.1.5-.1.7-.1.5,0,1.1.2,1.4.6.4.5.6,1.1.5,1.8v2.8c0,.4,0,.6.3.7s.4.2.7.1h0v.5h-2v-4.2c0-.4,0-.8-.3-1.2-.2-.3-.6-.5-1-.4-.3,0-.6.1-.8.2-.2.2-.4.4-.4.6,0,.3,0,.6,0,.9v2.6c0,.4,0,.6.3.7s.4.2.7,0h0v.5h-2v-4.1c0-.4,0-.8-.3-1.2-.2-.3-.6-.5-1-.4-.3,0-.6.1-.8.3s-.4.4-.4.7c-.1.3-.1.7-.1,1v2.5c0,.4.1.6.3.7s.5.1.7.1h0v.5s-3.4.2-3.4.2Z"/>
          <path class="cls-3" d="M42.9,17c-.5,0-1-.1-1.3-.5-.4-.4-.6-.9-.5-1.4,0-.6.2-1.1.7-1.4.6-.4,1.3-.5,2.1-.5h1v-.7c0-.3,0-.5,0-.8,0-.2,0-.4-.3-.5-.4-.2-1-.2-1.4,0-.2.1-.3.3-.3.5,0,.2,0,.5,0,.7-.3,0-.5,0-.8-.2-.2-.1-.3-.4-.3-.6,0-.3,0-.5.3-.7s.5-.3.8-.4c.4-.1.7-.1,1.1-.1.6,0,1.2.1,1.7.5.4.4.6,1,.5,1.6v3.1c0,.2,0,.5.2.7.2.1.4.2.6.2h0v.5h-1.6l-.2-1h0c-.2.2-.3.4-.5.6s-.3.3-.5.4c-.4,0-.7,0-1,0ZM43.2,16.3c.4,0,.9-.1,1.2-.4.3-.3.4-.8.4-1.2v-1h-.8c-.5,0-1,.1-1.4.4-.3.3-.4.7-.4,1.1,0,.7.4,1.1,1,1.1h0Z"/>
          <path class="cls-3" d="M0,28.9v-.5h.2c.2,0,.5,0,.7-.1.2-.1.3-.3.3-.7v-5.9c0-.4-.1-.6-.3-.7s-.5-.2-.7-.1H0v-.5h6.1v2.1c0,0-.6,0-.6,0v-.5c0-.3-.2-.5-.4-.7-.2-.2-.5-.3-.8-.3h-2v3.2h2.9v.6h-2.9v3.6h2.3c.3,0,.6-.1.8-.3.2-.2.3-.4.3-.7v-.5h.7v2.1H0Z"/>
          <path class="cls-3" d="M7.4,28.9v-.5h.2c.2,0,.3,0,.5-.1.1,0,.3-.1.4-.2.1-.2.1-.4.1-.5v-6.4c0-.2,0-.4-.1-.5s-.2-.2-.4-.2h-.7v-.5h2.3v7.8c0,.2,0,.4.1.5s.2.2.4.2.3.1.5.1h.2v.5s-3.5-.2-3.5-.2Z"/>
          <path class="cls-3" d="M12.2,23.6c-.1-.2-.2-.4-.3-.5-.2-.1-.4-.1-.6-.1v-.5h3v.5h-.1c-.5,0-.7.2-.7.6v.2c0,.1,0,.2.1.2l.8,2.3c.1.3.2.6.3,1l.2.8c.1-.2.2-.5.2-.7l.4-.9.9-2.3c0-.1.1-.2.1-.3v-.2c0-.2-.1-.3-.2-.5-.2-.1-.3-.2-.5-.2h-.1v-.5h2.6v.5h-.3c-.2,0-.4.1-.5.2-.2.2-.3.5-.4.8l-1.9,5h-1.1s-1.9-5.4-1.9-5.4Z"/>
          <path class="cls-3" d="M18.8,28.9v-.5h.7c.1,0,.3-.1.4-.2.1-.2.1-.3.1-.5v-3.8c0-.2,0-.4-.1-.5s-.2-.2-.4-.2-.3-.1-.5-.1h0v-.5h2v5.1c0,.2,0,.4.1.5s.2.2.4.2.3.1.5.1h.1v.5s-3.3-.1-3.3-.1ZM20.4,21.3c-.4-.1-.7-.5-.7-.9s.1-.3.2-.4c.3-.2.7-.2,1,0,.3.3.3.8,0,1.1-.1.1-.3.2-.5.2Z"/>
          <path class="cls-3" d="M23,28.9v-.5h0c.2,0,.5,0,.7-.1s.3-.3.3-.7v-3.8c0-.4-.1-.6-.3-.7-.2-.1-.5-.1-.7-.1h0v-.5h1.9l.2,1.2h.1c.1-.2.2-.4.3-.7.1-.2.3-.4.5-.5.3-.1.5-.2.8-.2s.7.1,1,.2c.2.1.3.4.3.6s-.1.5-.2.6c-.2.2-.6.3-.9.2,0-.2,0-.5-.1-.7s-.3-.3-.5-.2c-.2,0-.4.1-.6.3-.2.2-.3.4-.4.7-.1.3-.2.6-.2.9s-.1.5-.1.8v1.9c0,.4.1.6.3.7.2.1.5.1.7.1h.3v.5s-3.4,0-3.4,0Z"/>
          <path class="cls-3" d="M31,29c-.5,0-1-.1-1.3-.5-.4-.4-.6-.9-.5-1.5,0-.6.2-1.1.7-1.4.6-.3,1.3-.5,2-.5h1v-.7c0-.3,0-.5,0-.8,0-.2,0-.4-.3-.5-.3-.1-.5-.2-.8-.1-.2,0-.5,0-.7.2-.2.1-.3.3-.3.5-.1.2-.1.5-.1.7-.3,0-.5,0-.8-.2-.2-.1-.3-.4-.3-.6,0-.3.1-.5.3-.7.2-.2.5-.3.8-.4.4-.1.7-.1,1.1-.1.6,0,1.2.1,1.6.5.4.4.6,1,.6,1.6v3.1c0,.2,0,.5.2.7.2.1.4.2.6.2h0v.5h-1.6l-.2-1h0c-.2.2-.3.4-.5.6s-.3.3-.6.4c-.2,0-.4,0-.7,0ZM31.3,28.3c.4,0,.9-.1,1.2-.5.3-.3.5-.8.4-1.2v-1h-.8c-.5,0-1,.1-1.4.4-.3.3-.4.7-.4,1.1,0,.8.3,1.2,1,1.2h0Z"/>
        </g>
        <rect class="cls-6" x="12" width="10" height="5"/>
        <rect class="cls-1" width="10" height="5"/>
        <rect class="cls-4" x="24" width="10" height="5"/>
        <rect class="cls-2" x="36" width="10" height="5"/>
      </g>
    </g>
  </g>
</svg>